<svg width="64" height="64" viewBox="0 0 64 64" fill="none" xmlns="http://www.w3.org/2000/svg" role="img" aria-label="KlimaGuard Kids">
  <defs>
    <linearGradient id="kg-shield" x1="12" y1="4" x2="52" y2="60" gradientUnits="userSpaceOnUse">
      <stop stop-color="#0ea5e9"/>
      <stop offset="0.55" stop-color="#22d3ee"/>
      <stop offset="1" stop-color="#4ade80"/>
    </linearGradient>
  </defs>
  <!-- Protection: shield -->
  <path d="M32 3.5L53 14.2v17.8c0 15.2-10.2 26.2-21 29.6C21.2 58.2 11 47.2 11 32V14.2L32 3.5z" fill="url(#kg-shield)" stroke="#0284c7" stroke-width="1.4" stroke-linejoin="round"/>
  <!-- Climate: sun -->
  <circle cx="32" cy="16.5" r="4.2" fill="#fbbf24"/>
  <g stroke="#fbbf24" stroke-width="1.6" stroke-linecap="round">
    <path d="M32 10.2v1.8M32 21v1.8M25.7 16.5h1.8M36.5 16.5h1.8M27.4 11.9l1.3 1.3M35.3 19.8l1.3 1.3M27.4 21.1l1.3-1.3M35.3 13.2l1.3-1.3"/>
  </g>
  <!-- Kids: child silhouette -->
  <circle cx="32" cy="29.5" r="7.4" fill="#ffffff"/>
  <path d="M20.5 48.5c1.2-7.8 6.2-11.8 11.5-11.8S42.3 40.7 43.5 48.5" fill="#ffffff"/>
  <path d="M29.2 23.6c.7-1.6 2-2.4 2.8-1.7.7.6.4 2.1-.4 3.4" fill="#ffffff"/>
  <circle cx="29.2" cy="28.8" r="1.25" fill="#0284c7"/>
  <circle cx="34.8" cy="28.8" r="1.25" fill="#0284c7"/>
  <path d="M29.4 32.4c1.2 1.4 2.6 2 2.6 2s1.4-.6 2.6-2" stroke="#0284c7" stroke-width="1.5" stroke-linecap="round" fill="none"/>
  <!-- Climate: leaves -->
  <path d="M18.5 45.5c4.8-1.2 8.2.4 10.2 3.6-4.5 1.8-8.2.8-10.2-3.6z" fill="#22c55e" stroke="#ffffff" stroke-width="1" stroke-linejoin="round"/>
  <path d="M45.5 45.5c-4.8-1.2-8.2.4-10.2 3.6 4.5 1.8 8.2.8 10.2-3.6z" fill="#16a34a" stroke="#ffffff" stroke-width="1" stroke-linejoin="round"/>
  <path d="M23.8 46.8c1.4.7 2.5 1.8 3.2 3.1M40.2 46.8c-1.4.7-2.5 1.8-3.2 3.1" stroke="#ffffff" stroke-width="0.9" stroke-linecap="round" opacity="0.8"/>
</svg>
