<svg width="64" height="64" viewBox="0 0 64 64" fill="none" xmlns="http://www.w3.org/2000/svg">
  <defs>
    <linearGradient id="kg-shield" x1="8" y1="4" x2="56" y2="60" gradientUnits="userSpaceOnUse">
      <stop stop-color="#0ea5e9"/>
      <stop offset="0.5" stop-color="#38bdf8"/>
      <stop offset="1" stop-color="#4ade80"/>
    </linearGradient>
    <linearGradient id="kg-sun" x1="20" y1="16" x2="44" y2="40" gradientUnits="userSpaceOnUse">
      <stop stop-color="#fbbf24"/>
      <stop offset="1" stop-color="#f97316"/>
    </linearGradient>
  </defs>
  <path d="M32 4L54 14v18c0 14.4-9.8 24.8-22 28C19.8 56.8 10 46.4 10 32V14L32 4z" fill="url(#kg-shield)" stroke="#0284c7" stroke-width="1.5"/>
  <circle cx="32" cy="22" r="10" fill="url(#kg-sun)" opacity="0.95"/>
  <path d="M32 14v4M32 26v4M24 22h4M36 22h4M26.3 16.3l2.8 2.8M34.9 24.9l2.8 2.8M26.3 27.7l2.8-2.8M34.9 19.1l2.8-2.8" stroke="#fff" stroke-width="1.5" stroke-linecap="round"/>
  <path d="M22 38c2 3 6 5 10 5s8-2 10-5" stroke="#fff" stroke-width="2" stroke-linecap="round" fill="none"/>
  <circle cx="26" cy="36" r="2" fill="#fff"/>
  <circle cx="38" cy="36" r="2" fill="#fff"/>
  <path d="M28 42c1.5 1 3 1.5 4 1.5s2.5-.5 4-1.5" stroke="#fff" stroke-width="1.5" stroke-linecap="round" fill="none"/>
  <path d="M18 48c4 2 8 3 14 3s10-1 14-3" stroke="#4ade80" stroke-width="2" stroke-linecap="round" fill="none" opacity="0.8"/>
</svg>
